<svg xmlns="http://www.w3.org/2000/svg" width="71" height="70" viewBox="0 0 71 70" fill="none"><circle cx="35.5" cy="35" r="35" fill="#7CADB4"></circle><g clip-path="url(#clip0_437_4680)"><path d="M54.33 37.52L53.07 35L47.89 24.776L46 20.96C45.5088 18.656 43.4788 17 41.1 17C38.3 17 36.06 19.304 36.06 22.112C36.06 22.4 36.06 22.688 36.13 22.976H34.94C35.01 22.688 35.01 22.4 35.01 22.112C35.0088 19.304 32.7687 17 29.9688 17C27.5887 17 25.5588 18.728 25.0688 20.96L23.1788 24.704L20.5887 29.816L17.9288 35L16.6688 37.52C15.34 39.176 14.5 41.264 14.5 43.568C14.5 48.752 18.63 53 23.74 53C28.85 53 32.98 48.752 32.98 43.568C32.98 42.92 32.91 42.272 32.77 41.624C33.47 42.272 34.45 42.632 35.5 42.632C36.55 42.632 37.46 42.272 38.23 41.624C38.09 42.272 38.02 42.92 38.02 43.568C38.02 48.752 42.15 53 47.26 53C52.37 53 56.4987 48.752 56.4987 43.568C56.4987 41.264 55.6588 39.104 54.3288 37.52H54.33ZM23.74 49.544C20.52 49.544 17.86 46.88 17.86 43.568C17.86 40.256 20.52 37.592 23.74 37.592C26.96 37.592 29.62 40.256 29.62 43.568C29.62 46.88 26.96 49.544 23.74 49.544ZM35.5 39.824C34.73 39.824 34.1 39.176 34.1 38.384C34.1 37.592 34.73 36.944 35.5 36.944C36.27 36.944 36.9 37.592 36.9 38.384C36.9 39.176 36.27 39.824 35.5 39.824ZM47.26 49.544C44.04 49.544 41.38 46.88 41.38 43.568C41.38 40.256 44.04 37.592 47.26 37.592C50.48 37.592 53.14 40.256 53.14 43.568C53.14 46.88 50.48 49.544 47.26 49.544Z" fill="white"></path></g><defs><clipPath id="clip0_437_4680"><rect width="42" height="36" fill="white" transform="translate(14.5 17)"></rect></clipPath></defs></svg>