<svg xmlns="http://www.w3.org/2000/svg" width="71" height="70" viewBox="0 0 71 70" fill="none"><circle cx="35.5" cy="35" r="35" fill="#7CADB4"></circle><path d="M44.3869 30.8533C42.752 28.4267 40.6033 26.3267 38.9217 23.5267C35.8387 18.3933 37.1467 12 37.1467 12C37.1467 12 33.036 16.3867 32.3821 20.5867C31.7281 24.6933 32.8025 25.3 32.7091 30.06C32.5689 35.1467 30.7005 37.06 30.7005 37.06C30.7005 37.06 31.3544 34.1667 30.4669 31.4133C29.159 27.54 26.1694 25.8133 26.1694 25.8133C26.1694 25.8133 26.5431 31.74 24.5345 35.5667C22.2924 39.86 22.199 42.3333 22.8529 46.1133C23.4602 49.5667 25.9826 52.6933 30.5603 53.58C30.9807 53.6733 31.4946 53.7667 32.0551 53.8133C31.5413 53.4867 31.0274 52.9733 30.607 52.18C29.0656 49.38 29.8597 47.0933 32.7091 44.7133C37.2868 40.7933 37.7072 36.78 37.7072 36.78C37.7072 36.78 38.5947 38.9267 38.548 40.7467C38.548 42.24 38.4079 42.52 37.8473 44.5267C37.2868 46.6267 38.1276 47.5133 38.1276 47.5133C38.1276 47.5133 38.2677 46.44 38.9684 45.4133C39.9026 44.1067 41.8178 43.5 41.8178 43.5C41.8178 43.5 40.2763 45.3667 40.9303 49.94C41.1638 51.62 40.4165 53.2067 38.548 54C41.0704 53.7667 43.5461 53.16 45.0409 51.8067C50.8798 46.72 48.4041 36.78 44.3869 30.8533Z" fill="white"></path></svg>