<svg xmlns="http://www.w3.org/2000/svg" width="71" height="70" viewBox="0 0 71 70" fill="none"><circle cx="35.5" cy="35" r="35" fill="#7CADB4"></circle><path d="M45.878 24.02V19.92C47.2953 19.92 48.4291 18.8267 48.4291 17.46C48.4291 16.0933 47.2953 15 45.878 15H24.0512C22.6339 15 21.5 16.0933 21.5 17.46C21.5 18.8267 22.6339 19.92 24.0512 19.92V24.02C24.0512 29.145 26.8858 33.7233 31.0669 35.5C26.8858 37.2767 24.0512 41.855 24.0512 46.98V51.08C22.6339 51.08 21.5 52.1733 21.5 53.54C21.5 54.9067 22.6339 56 24.0512 56H45.9488C47.3661 56 48.5 54.9067 48.5 53.54C48.5 52.1733 47.3661 51.08 45.9488 51.08V46.98C45.9488 41.855 43.1142 37.2767 38.9331 35.5C43.0433 33.7233 45.878 29.145 45.878 24.02ZM37.3031 34.3383C36.8071 34.475 36.4528 34.9533 36.4528 35.5C36.4528 36.0467 36.8071 36.525 37.3031 36.6617C41.3425 37.8917 44.248 42.1283 44.248 46.98V51.08H25.6811V46.98C25.6811 42.1283 28.5157 37.8917 32.626 36.6617C33.122 36.525 33.4764 36.0467 33.4764 35.5C33.4764 34.9533 33.122 34.475 32.626 34.3383C28.5866 33.1083 25.6811 28.8717 25.6811 24.02V19.92H44.1772V24.02C44.248 28.8717 41.3425 33.1083 37.3031 34.3383V34.3383ZM27.4528 45.75H42.4764C42.5472 46.16 42.5472 46.57 42.5472 46.98V49.85H27.3819V46.98C27.3819 46.57 27.3819 46.16 27.4528 45.75V45.75ZM27.5945 26.07H42.3346C41.6969 29.2817 39.5709 31.9467 36.8071 32.7667C35.9567 33.04 35.248 33.655 34.9646 34.475C34.6811 33.655 33.9724 33.04 33.122 32.7667C30.3583 31.9467 28.2323 29.2817 27.5945 26.07V26.07Z" fill="white"></path></svg>