<svg xmlns="http://www.w3.org/2000/svg" width="70" height="70" viewBox="0 0 70 70" fill="none"><g clip-path="url(#clip0_455_2569)"><ellipse cx="36" cy="36" rx="28" ry="27" fill="white"></ellipse><path d="M34.9767 0C15.6567 0 0 15.68 0 35C0 54.32 15.6567 70 34.9767 70C54.2967 70 70 54.32 70 35C70 15.68 54.32 0 34.9767 0ZM52.8967 56.56L40.5767 44.2633V42.3267L39.9 41.6267C37.1 44.0533 33.4367 45.5 29.47 45.5C20.6267 45.5 13.44 38.3367 13.44 29.47C13.44 20.6033 20.6033 13.44 29.47 13.44C38.3367 13.44 45.5 20.6033 45.5 29.47C45.5 33.4367 44.0533 37.0767 41.6267 39.9L42.3267 40.5767H44.2633L56.56 52.8967L52.8967 56.56Z" fill="#7CADB4"></path><path d="M32.0244 40.2593C37.9818 38.8532 41.6715 32.8839 40.2654 26.9264C38.8593 20.969 32.8899 17.2793 26.9325 18.6854C20.975 20.0915 17.2854 26.0609 18.6915 32.0183C20.0976 37.9758 26.0669 41.6654 32.0244 40.2593Z" fill="#7CADB4"></path></g><defs><clipPath id="clip0_455_2569"><rect width="70" height="70" fill="white"></rect></clipPath></defs></svg>