<svg width="71" height="70" viewBox="0 0 71 70" fill="none" xmlns="http://www.w3.org/2000/svg">
<g clip-path="url(#clip0_366_2388)">
<path fill-rule="evenodd" clip-rule="evenodd" d="M0.5 35C0.5 15.68 16.1567 0 35.4767 0C54.82 0 70.5 15.68 70.5 35C70.5 54.32 54.7967 70 35.4767 70C16.1567 70 0.5 54.32 0.5 35ZM15.0037 54.6874C15.4039 55.0795 15.816 55.4616 16.2393 55.8332C15.356 55.9798 14.8033 56.0467 14.8033 56.0467C14.8033 56.0467 14.8662 55.5258 15.0037 54.6874Z" fill="#7CADB4"/>
<g clip-path="url(#clip1_366_2388)">
<path d="M53.1427 25.6667C52.1322 25.6804 51.1574 25.3017 50.4284 24.6137C49.2232 23.5752 47.6745 23.003 46.0716 23.003C44.4686 23.003 42.9207 23.5752 41.7147 24.613C40.9834 25.2979 40.0109 25.6796 39.0005 25.6796C37.99 25.6796 37.0183 25.2979 36.2862 24.613C35.0818 23.5752 33.5331 23.003 31.9309 23.003C30.3287 23.003 28.78 23.5752 27.5741 24.613C26.8436 25.301 25.8711 25.685 24.8598 25.685C23.8485 25.685 22.8753 25.301 22.1455 24.613C20.966 23.5768 19.4398 23.0023 17.8569 23C17.3723 23 16.924 23.2545 16.6813 23.6667C16.4385 24.0789 16.4393 24.5878 16.6813 25C16.9232 25.4122 17.3715 25.6667 17.8569 25.6667C18.8682 25.6514 19.8438 26.0301 20.5712 26.7196C21.7647 27.7688 23.3127 28.344 24.9141 28.3333C26.5202 28.3478 28.0735 27.7718 29.2709 26.7196C30.0007 26.0316 30.9731 25.6476 31.9852 25.6476C32.9972 25.6476 33.9689 26.0316 34.6995 26.7196C35.9046 27.7573 37.4533 28.3295 39.0563 28.3295C40.6593 28.3295 42.2072 27.7573 43.4123 26.7196C44.1444 26.0347 45.1161 25.653 46.1266 25.653C47.1371 25.653 48.1096 26.0347 48.8409 26.7196C50.0236 27.7596 51.556 28.3341 53.1434 28.3333C53.6281 28.3333 54.0764 28.0789 54.3191 27.6667C54.5618 27.2545 54.5611 26.7455 54.3191 26.3333C54.0772 25.9211 53.6289 25.6667 53.1434 25.6667H53.1427Z" fill="white"/>
<path d="M53.1429 35.0002C52.1325 35.0139 51.1576 34.6352 50.4287 33.9472C49.2235 32.9095 47.6748 32.3373 46.0718 32.3373C44.4689 32.3373 42.9209 32.9095 41.715 33.9472C40.9837 34.6322 40.0112 35.0139 39.0007 35.0139C37.9903 35.0139 37.0185 34.6322 36.2865 33.9472C35.0813 32.9095 33.5334 32.3373 31.9304 32.3373C30.3274 32.3373 28.7795 32.9095 27.5736 33.9472C26.8431 34.6352 25.8706 35.0192 24.8593 35.0192C23.848 35.0192 22.8748 34.6352 22.145 33.9472C20.9655 32.9103 19.4385 32.3365 17.8565 32.3335C17.3718 32.3335 16.9235 32.588 16.6808 33.0002C16.438 33.4124 16.4388 33.9213 16.6808 34.3335C16.9227 34.7457 17.371 35.0002 17.8565 35.0002C18.8677 34.9849 19.8433 35.3636 20.5707 36.0531C21.7643 37.1023 23.3122 37.6775 24.9136 37.6668C26.5197 37.6813 28.073 37.1053 29.2704 36.0531C30.0002 35.3651 30.9727 34.9811 31.9847 34.9811C32.9967 34.9811 33.9685 35.3651 34.699 36.0531C35.9041 37.0908 37.4528 37.663 39.0558 37.663C40.6588 37.663 42.2067 37.0908 43.4118 36.0531C44.1439 35.3682 45.1156 34.9864 46.1261 34.9864C47.1366 34.9864 48.1091 35.3682 48.8404 36.0531C50.0231 37.0931 51.5555 37.6676 53.1429 37.6668C53.6276 37.6668 54.0759 37.4124 54.3186 37.0002C54.5614 36.588 54.5606 36.079 54.3186 35.6668C54.0767 35.2546 53.6284 35.0002 53.1429 35.0002Z" fill="white"/>
<path d="M53.1429 44.3332C52.1325 44.3469 51.1576 43.9682 50.4287 43.2802C49.2235 42.2425 47.6748 41.6703 46.0718 41.6703C44.4689 41.6703 42.9209 42.2425 41.715 43.2802C40.9837 43.9652 40.0112 44.3469 39.0007 44.3469C37.9903 44.3469 37.0185 43.9652 36.2865 43.2802C35.0813 42.2425 33.5334 41.6703 31.9304 41.6703C30.3274 41.6703 28.7795 42.2425 27.5736 43.2802C26.8431 43.9682 25.8706 44.3522 24.8593 44.3522C23.848 44.3522 22.8748 43.9682 22.145 43.2802C20.9655 42.2433 19.4385 41.6696 17.8565 41.6665C17.3718 41.6665 16.9235 41.921 16.6808 42.3332C16.438 42.7454 16.4388 43.2543 16.6808 43.6665C16.9227 44.0787 17.371 44.3332 17.8565 44.3332C18.8677 44.3179 19.8433 44.6966 20.5707 45.3861C21.7643 46.4353 23.3122 47.0105 24.9136 46.9998C26.5197 47.0143 28.073 46.4383 29.2704 45.3861C30.0002 44.6981 30.9727 44.3141 31.9847 44.3141C32.9967 44.3141 33.9685 44.6981 34.699 45.3861C35.9041 46.4238 37.4528 46.996 39.0558 46.996C40.6588 46.996 42.2067 46.4238 43.4118 45.3861C44.1439 44.7012 45.1156 44.3195 46.1261 44.3195C47.1366 44.3195 48.1091 44.7012 48.8404 45.3861C50.0231 46.4261 51.5555 47.0006 53.1429 46.9998C53.6276 46.9998 54.0759 46.7454 54.3186 46.3332C54.5614 45.921 54.5606 45.412 54.3186 44.9998C54.0767 44.5876 53.6284 44.3332 53.1429 44.3332Z" fill="white"/>
</g>
</g>
<defs>
<clipPath id="clip0_366_2388">
<rect width="70" height="70" fill="white" transform="translate(0.5)"/>
</clipPath>
<clipPath id="clip1_366_2388">
<rect width="38" height="24" fill="white" transform="translate(16.5 23)"/>
</clipPath>
</defs>
</svg>
