<svg width="32" height="32" viewBox="0 0 32 32" fill="none" xmlns="http://www.w3.org/2000/svg">
<g clip-path="url(#clip0_288_2508)">
<circle cx="16" cy="16" r="15" stroke="white" stroke-width="2"/>
<path d="M19.382 8H12.618C10.0672 8 8 10.1534 8 12.8105V19.8552C8 22.5123 10.0672 24.6657 12.618 24.6657H19.382C21.9328 24.6657 24 22.5123 24 19.8552V12.8105C24 10.1534 21.9328 8 19.382 8ZM22.527 19.9796C22.527 21.7436 21.155 23.1728 19.4616 23.1728H12.5394C10.846 23.1728 9.47396 21.7436 9.47396 19.9796V12.77C9.47396 11.006 10.846 9.57685 12.5394 9.57685H19.4616C21.155 9.57685 22.527 11.006 22.527 12.77V19.9806V19.9796Z" fill="white"/>
<path d="M16.0001 12.0498C13.7076 12.0498 11.8491 13.9857 11.8491 16.3738C11.8491 18.7618 13.7076 20.6977 16.0001 20.6977C18.2926 20.6977 20.1521 18.7618 20.1521 16.3738C20.1521 13.9857 18.2936 12.0498 16.0001 12.0498ZM16.0001 19.1775C14.5135 19.1775 13.3095 17.9223 13.3095 16.3748C13.3095 14.8272 14.5145 13.572 16.0001 13.572C17.4857 13.572 18.6917 14.8272 18.6917 16.3748C18.6917 17.9223 17.4867 19.1775 16.0001 19.1775Z" fill="white"/>
<path d="M20.2899 10.8784C19.7558 10.8784 19.3228 11.3295 19.3228 11.8858C19.3228 12.4421 19.7558 12.8932 20.2899 12.8932C20.8239 12.8932 21.257 12.4421 21.257 11.8858C21.257 11.3295 20.8239 10.8784 20.2899 10.8784Z" fill="white"/>
</g>
<defs>
<clipPath id="clip0_288_2508">
<rect width="32" height="32" fill="white"/>
</clipPath>
</defs>
</svg>
