<svg width="32" height="32" viewBox="0 0 32 32" fill="none" xmlns="http://www.w3.org/2000/svg">
<g clip-path="url(#clip0_288_2510)">
<circle cx="16" cy="16" r="15" stroke="white" stroke-width="2"/>
<path d="M8.26962 12.09H11.6613V23.0002H8.26962V12.09ZM9.96547 6.66675C11.0495 6.66675 11.9298 7.54824 11.9298 8.63442C11.9298 9.7206 11.0484 10.5988 9.96547 10.5988C8.88259 10.5988 8 9.7195 8 8.63442C8 7.54934 8.87819 6.66675 9.96547 6.66675Z" fill="white"/>
<path d="M13.7886 12.0899H17.0416V13.5822H17.0878C17.5401 12.7238 18.6461 11.8203 20.2958 11.8203C23.7304 11.8203 24.3643 14.0796 24.3643 17.0168V23.0013H20.9748V17.6958C20.9748 16.4303 20.9528 14.8026 19.2118 14.8026C17.4708 14.8026 17.1781 16.1826 17.1781 17.6056V23.0024H13.7886V12.0899Z" fill="white"/>
</g>
<defs>
<clipPath id="clip0_288_2510">
<rect width="32" height="32" fill="white"/>
</clipPath>
</defs>
</svg>
