<svg width="32" height="32" viewBox="0 0 32 32" fill="none" xmlns="http://www.w3.org/2000/svg">
<g clip-path="url(#clip0_288_2497)">
<circle cx="16" cy="16" r="15" stroke="white" stroke-width="2"/>
<path d="M16.0042 16.6077L24.2402 9.55823C24.0704 9.41815 23.8635 9.33325 23.6395 9.33325H8.36894C8.14503 9.33325 7.9381 9.41815 7.76831 9.55823L16.0042 16.6077Z" fill="white"/>
<path d="M24.6412 20.4289C24.6614 20.3377 24.6741 20.2432 24.6741 20.1456V10.667L19.7417 14.8884L24.6402 20.4289H24.6412Z" fill="white"/>
<path d="M18.8951 15.6145L16.0033 18.0892L13.1116 15.6145L8.10059 21.2877C8.18654 21.3142 8.27462 21.3333 8.36801 21.3333H23.6386C23.732 21.3333 23.8201 21.3142 23.906 21.2877L18.8951 15.6145Z" fill="white"/>
<path d="M12.2657 14.8884L7.33325 10.667V20.1456C7.33325 20.2432 7.34705 20.3377 7.36616 20.4289L12.2646 14.8884H12.2657Z" fill="white"/>
</g>
<defs>
<clipPath id="clip0_288_2497">
<rect width="32" height="32" fill="white"/>
</clipPath>
</defs>
</svg>
